<?xml version="1.0" encoding="utf-8"?>
<!-- Generator: Adobe Illustrator 24.3.0, SVG Export Plug-In . SVG Version: 6.00 Build 0)  -->
<svg version="1.1" id="Layer_1" xmlns="http://www.w3.org/2000/svg" xmlns:xlink="http://www.w3.org/1999/xlink" x="0px" y="0px"
	 viewBox="0 0 940 940" style="enable-background:new 0 0 940 940;" xml:space="preserve">
<style type="text/css">
	.st0{fill:#52B947;}
	.st1{fill:#FFFFFF;}
</style>
<g id="Layer_2_1_">
	<g id="Layer_1-2">
		<rect class="st0" width="940" height="940"/>
		<path class="st1" d="M157.6,260.6V273c9,0,13.5,2.3,13.5,7v67.4l-48.4-86.8H73.6V273c9,0,13.5,2.3,13.5,7v73.6c0,4.6-4.5,7-13.5,7
			v12.4h43.1v-12.4c-9,0-13.5-2.3-13.5-7v-65.3l47.3,84.7h36.6v-93c0-4.6,4.5-7,13.5-7v-12.4L157.6,260.6z"/>
		<path class="st1" d="M274.3,362.2c-2.6,0-3.8-2.1-3.8-6.4v-35.2c0-5.4-1-10-3-13.5c-1.8-3.4-4.5-6.3-7.8-8.5
			c-3.3-2.1-7-3.6-10.9-4.4c-4-0.9-8.1-1.3-12.2-1.3c-4.7-0.1-9.4,0.5-13.9,1.7c-3.7,1-7.1,2.6-10.3,4.7c-2.6,1.8-4.8,4.1-6.4,6.9
			c-1.4,2.5-2.2,5.3-2.2,8.2c0,7.9,3.5,11.8,10.6,11.8c3.5,0,6.2-0.9,8-2.8c1.9-2,2.9-4.7,2.7-7.5c0-2.7-0.8-4.7-2.3-5.9
			c-1.6-1.2-3.5-2-5.5-2.1c2-1.5,4.2-2.7,6.6-3.4c3-0.8,6.1-1.2,9.3-1.1c2.2-0.1,4.4,0.4,6.4,1.4c1.7,0.9,3.3,2.2,4.4,3.8
			c1.2,1.6,2,3.4,2.5,5.4c0.5,2,0.8,4.1,0.8,6.2v4.7c-3.9,1.5-8,2.7-12.1,3.6c-4,0.9-7.7,1.8-11.3,2.6c-3.5,0.9-6.8,1.8-9.8,2.7
			c-2.8,0.9-5.4,2.2-7.8,3.9c-2.2,1.7-3.9,3.9-5.1,6.4c-1.3,3.1-2,6.6-1.9,10c0,6.5,1.9,11.6,5.6,15.5c3.8,3.9,9.7,5.8,18,5.8
			c3.3,0,6.6-0.4,9.8-1.4c2.7-0.8,5.3-2.1,7.7-3.7c4.1-2.9,7.3-7,9-11.7c0.7,4.1,2.5,7.9,5.2,11c2.6,2.9,6.7,4.3,12.1,4.3
			c2.2,0,4.5-0.3,6.6-0.9c0.4-0.1,0.8-0.2,1.2-0.4v-10.6C274.8,362.1,274.5,362.2,274.3,362.2z M247.7,348.7
			c-1.4,3.2-3.6,6.1-6.4,8.3c-2.8,2.2-6.2,3.4-9.7,3.3c-3.5,0-6-0.9-7.6-2.6c-1.6-1.8-2.5-4.1-2.4-6.5c-0.1-2.4,0.5-4.7,1.7-6.7
			c1.4-1.8,3.1-3.4,5.1-4.5c2.6-1.5,5.4-2.8,8.2-3.9c3.2-1.3,6.9-3,11.1-5L247.7,348.7z"/>
		<path class="st1" d="M352.7,349.6c0.1,3.7-0.6,7.4-2.1,10.7c-1.3,2.9-3.2,5.5-5.6,7.6c-2.4,2-5.2,3.6-8.2,4.5
			c-3.1,1-6.3,1.4-9.6,1.4c-6.2,0-11-0.5-14.3-1.4c-2.9-0.8-5.7-1.9-8.2-3.4l-1.9-0.9c-0.6-0.3-1.2-0.4-1.9-0.5
			c-1.7,0-2.7,1.8-3.2,5.3H287v-27.4c1.8-0.2,3.5-0.4,5.3-0.5c1.8-0.1,3.5-0.2,5.3-0.3c0.5,2.6,1.6,5.1,3.3,7.3c1.7,2.1,3.7,4,6,5.4
			c2.5,1.5,5.1,2.6,7.9,3.3c2.8,0.8,5.8,1.1,8.7,1.1c3.2,0,5.7-0.8,7.4-2.3c1.7-1.4,2.7-3.5,2.7-5.8c0.1-2.1-0.7-4.1-2.4-5.5
			c-1.9-1.4-4.1-2.3-6.4-2.9c-2.7-0.7-5.7-1.4-9.1-2c-3.5-0.6-7-1.5-10.4-2.6c-6.6-2-11.3-4.9-14.1-8.7c-2.8-3.8-4.2-8.7-4.2-14.8
			c0-7,2.1-12.6,6.4-16.8c4.2-4.2,10.3-6.4,18-6.4c2.9,0,5.8,0.3,8.6,1c2.3,0.6,4.5,1.4,6.7,2.3c1.9,0.9,3.5,1.7,4.9,2.3
			c1,0.6,2.1,0.9,3.2,1c1,0,1.9-0.4,2.5-1.1c0.7-1.2,1.2-2.5,1.4-3.9h10v26.5l-10.8,1.1c-1.1-6-3.7-10.4-7.6-12.9
			c-4.2-2.6-9.1-4-14-3.9c-3.3,0-5.8,0.6-7.6,1.9c-1.7,1.1-2.8,3-2.7,5.1c-0.1,2.5,1.3,4.8,3.4,5.9c2.7,1.5,5.6,2.6,8.6,3.3
			c3.5,0.9,7.2,1.8,11.3,2.7c3.9,0.9,7.7,2.2,11.3,4.1c3.4,1.8,6.4,4.3,8.6,7.4C351.5,340.2,352.7,344.4,352.7,349.6z"/>
		<path class="st1" d="M456.9,353.7v-36.8c0-7.8-2-13.5-6-17.1c-4-3.6-10-5.4-17.8-5.4c-6.6-0.2-13.2,1.4-19,4.4
			c-5.5,3-10.1,7.3-13.5,12.5v-54.9h-40.4v12.1c8.5,0,12.7,2.3,12.7,6.8v78.4c0,4.5-4.3,6.8-12.9,6.8v12.4h49v-12.4
			c-5.6,0-8.5-2.3-8.5-6.8v-24c1.4-5.1,4.1-9.8,7.8-13.6c3-3.2,7.2-5,11.6-5c3-0.1,5.8,1.6,7,4.4c1.6,2.9,2.3,7.5,2.3,13.9v24.4
			c0,4.5-2.8,6.8-8.5,6.8v12.4h49.1v-12.4C461.2,360.5,456.9,358.2,456.9,353.7z"/>
		<path class="st1" d="M532,358.3c-3.9,2.6-8.4,3.9-13.1,3.9c-6.4,0-11-2.3-13.9-6.9c-2.9-4.6-4.5-11.5-4.7-20.6h54.9
			c0-14.5-3.3-25.1-9.8-31.8c-6.5-6.7-16.5-10-30-10c-6.2-0.1-12.3,0.9-18.1,2.9c-5,1.8-9.5,4.6-13.3,8.3c-3.7,3.7-6.5,8.2-8.2,13.1
			c-1.9,5.5-2.9,11.3-2.8,17.2c0,8,1.2,14.6,3.6,19.8c2.1,4.9,5.4,9.3,9.6,12.6c4.1,3.2,8.9,5.5,14,6.7c5.4,1.3,11,2,16.6,2
			c4.9,0.1,9.8-0.7,14.4-2.3c3.9-1.4,7.5-3.5,10.7-6.2c2.8-2.5,5.2-5.5,7-8.8c1.7-3.2,3-6.6,3.7-10.2l-12.7-1.4
			C538.4,351.8,535.9,355.7,532,358.3z M505.7,308.3c2.7-3.3,6.8-5.1,11-5c2.4-0.1,4.9,0.6,7,1.8c1.9,1.2,3.5,2.8,4.7,4.8
			c1.3,2.1,2.2,4.4,2.7,6.7c0.6,2.5,0.9,5,0.9,7.6h-31.4C501.2,317,502.9,311.7,505.7,308.3L505.7,308.3z"/>
		<path class="st1" d="M641.2,304.1c-1.2-2.3-2.8-4.3-4.8-5.9c-2-1.6-4.3-2.8-6.7-3.5c-2.4-0.8-4.9-1.2-7.4-1.2
			c-4.7,0-9.4,1.3-13.3,3.9c-4,2.6-7.4,6.8-10,12.6v-14.1h-40.4V308c8.5,0,12.7,2.3,12.7,6.8v38.9c0,4.5-4.3,6.8-12.9,6.8v12.4h55
			v-12.4c-3.6,0.1-7.1-0.4-10.5-1.7c-2.7-1.1-4-2.8-4-5.1v-26.5c0.8-3.2,1.9-6.3,3.4-9.3c1.3-2.7,3-5.1,4.9-7.4
			c1.6-1.9,3.6-3.5,5.7-4.8c1.8-1.1,3.9-1.7,6-1.7c1.6,0,3.1,0.3,4.5,1c1.4,0.7,2.6,1.8,3.5,3.1c-3.5,0.2-6,1.3-7.6,3.3
			c-1.5,2-2.3,4.3-2.3,6.8c-0.1,2.9,1.1,5.7,3.2,7.7c2.1,2,5.1,3,9.1,3c3.9,0.2,7.6-1.5,10-4.5c2.4-3,3.6-7,3.6-11.8
			C643.2,309.6,642.6,306.8,641.2,304.1z"/>
		<path class="st1" d="M167.3,472.5c-4-5-9.7-8.9-16.9-11.5c-3.9-1.3-7.9-2.4-11.9-3.3c-4.1-0.9-8.1-1.7-11.9-2.3
			c-3.9-0.6-7.6-1.3-11.1-2c-3.2-0.6-6.3-1.5-9.3-2.6c-2.4-0.9-4.5-2.2-6.4-3.9c-1.6-1.6-2.4-3.7-2.3-6c-0.1-2.4,0.6-4.8,2.1-6.7
			c1.4-1.7,3.2-3,5.3-3.8c2.2-0.9,4.5-1.4,6.8-1.7c2.2-0.2,4.4-0.4,6.6-0.4c4.4,0,8.7,0.5,12.9,1.4c3.8,0.9,7.3,2.4,10.6,4.5
			c3.1,2.1,5.7,4.8,7.6,7.9c2.1,3.6,3.5,7.6,3.9,11.7l13.6-1.4v-37.8h-11.6c-0.9,1.6-2,3-3.2,4.3c-1.4,1.1-3.1,1.6-4.8,1.4
			c-0.9,0-1.8-0.2-2.6-0.5c-1-0.4-2-0.8-2.9-1.4c-3.7-1.8-7.6-3.3-11.6-4.4c-4.6-1.3-10.6-2-17.8-2c-6-0.1-11.9,0.8-17.5,2.6
			c-4.4,1.5-8.5,3.9-11.9,7c-3,2.8-5.4,6.3-6.8,10.1c-1.4,3.9-2.1,8-2.1,12.1c0,10.2,2.4,18,7.3,23.5c4.9,5.5,12.6,9.6,23.1,12.3
			c5.2,1.4,10.5,2.5,15.9,3.2c4.9,0.6,9.7,1.5,14.4,2.6c3.7,0.8,7.3,2.3,10.5,4.2c2.7,1.7,4.2,4.6,4.1,7.8c0.1,2.7-0.5,5.5-1.9,7.9
			c-1.2,2-3,3.6-5.1,4.7c-2.4,1.2-4.9,1.9-7.6,2.3c-3,0.4-6,0.6-9,0.6c-11.3,0-20.3-2.3-27.1-6.9c-6.8-4.6-10.5-11.3-11.3-20.2
			L73.6,487v39.9h13.8c0.7-1.6,1.6-3.2,2.7-4.5c0.9-1.2,2.3-1.9,3.8-2c2.2,0.1,4.3,0.8,6.2,2c3.8,2,7.9,3.6,12,4.8
			c4.7,1.4,10.8,2.1,18.2,2.1c5.9,0.1,11.7-0.7,17.3-2.3c5-1.4,9.6-3.7,13.7-6.9c3.8-3,6.9-6.9,8.9-11.3c2.2-4.9,3.3-10.3,3.2-15.7
			C173.4,484.4,171.3,477.5,167.3,472.5z"/>
		<path class="st1" d="M247.7,499.6c-0.8,5.8-3,10.1-6.5,12.7c-3.5,2.6-7.8,4-12.2,3.9c-6.7,0-11.7-2.4-15.2-7.1
			c-3.5-4.7-5.2-12.5-5.2-23.1c0-9.4,2-16.5,6-21.3c3.7-4.7,9.5-7.4,15.5-7.3c7.4,0,12.4,1.9,15.3,5.6c-2.7,0.1-5.1,1.3-6.9,3.3
			c-3.6,4-3.5,10.2,0.3,14.1c2,2,4.9,3,8.7,3c4.2,0,7.3-1.2,9.3-3.7c2-2.6,3-5.8,2.9-9c0.1-3.6-0.8-7.2-2.6-10.4
			c-1.8-3-4.4-5.6-7.4-7.4c-3.5-2.1-7.3-3.6-11.3-4.5c-4.7-1-9.4-1.6-14.2-1.5c-6.3-0.1-12.6,0.9-18.6,3.1
			c-5.1,1.9-9.7,4.9-13.5,8.7c-3.7,3.8-6.4,8.3-8.2,13.3c-1.9,5.4-2.8,11.2-2.7,16.9c0,7.2,1.1,13.3,3.2,18.4
			c2,4.9,5.1,9.2,9.1,12.5c4.1,3.4,9,5.9,14.1,7.3c5.9,1.6,12,2.4,18.1,2.3c4.9,0.1,9.8-0.8,14.4-2.6c3.8-1.5,7.3-3.8,10.3-6.7
			c2.7-2.7,4.9-5.8,6.6-9.2c1.6-3.3,2.7-6.8,3.3-10.4L247.7,499.6z"/>
		<path class="st1" d="M360.3,508V450h-38.6v12.1c3.9,0,6.8,0.6,8.6,1.7c1.8,1.1,2.8,3.1,2.7,5.2v24c-1.7,5.8-4,10.3-7,13.6
			c-2.6,3.2-6.6,5-10.7,5c-3.1,0.2-6.1-1.6-7.5-4.4c-1.6-2.9-2.3-7.6-2.3-13.9V450h-39.8v12.1c8.7,0,13,2.3,13,6.8v37
			c0,7.9,1.9,13.6,5.7,17.2c3.8,3.6,9.8,5.4,17.9,5.4c7.6,0,13.8-1.5,18.8-4.6c4.9-3.1,9-7.3,11.9-12.3v15.4h39.5v-12.1
			C364.4,514.8,360.3,512.6,360.3,508z"/>
		<path class="st1" d="M413.5,507.7v-97.2H373v12.1c8.6,0,12.8,2.3,12.9,6.8v78.4c0,4.5-5,7.1-13.6,7.1l0.1,12.1h54v-12.4
			C417.8,514.5,413.5,512.3,413.5,507.7z"/>
		<path class="st1" d="M525.6,469.7c-1.5-4.7-4-9.1-7.3-12.8c-3-3.3-6.8-5.8-10.9-7.3c-4.4-1.5-9-2.3-13.6-2.3
			c-6.1-0.1-12.2,1.2-17.8,3.7c-5.1,2.3-9.2,6.4-11.6,11.4l-1.1-12.5h-35.4v12.2c8.7,0,13,2.3,13,7v74.5c0,4.5-4.3,6.8-13,6.8v12.1
			h56.9v-12.1c-10.8,0-16.2-2.3-16.2-6.8V523c2.7,2.5,5.9,4.2,9.3,5.2c4.1,1.2,8.3,1.8,12.5,1.7c5,0,10-0.7,14.8-2.3
			c4.5-1.4,8.6-3.9,12.1-7.2c3.6-3.6,6.4-8,8.1-12.8c2-5.2,2.9-11.6,2.9-19.2C528.5,482.1,527.6,475.8,525.6,469.7z M496.7,509.5
			c-2.7,4.4-7.2,6.7-13.5,6.7c-6.3,0-10.6-2.2-13-6.7c-2.4-4.4-3.6-11.1-3.6-20c0-8.9,1.2-15.5,3.6-19.9c2.4-4.4,6.8-6.6,13-6.6
			c6.4,0,10.9,2.2,13.5,6.6c2.7,4.4,4,11,4,19.9C500.7,498.5,499.3,505.1,496.7,509.5L496.7,509.5z"/>
		<path class="st1" d="M582.8,502.1v7.3c0.1,1.7-0.3,3.5-1.2,5c-0.8,1.2-2.3,1.8-4.4,1.8s-3.6-0.6-4.5-1.7c-1-1.5-1.4-3.3-1.3-5.1
			v-48.2c3.6,0,7,0.1,10.1,0.4c3.1,0.2,12.8,0.2,15.6,0.8l-5.9-12.3h-19.8v-23.7l-18.6,1.1v3.3c0.1,3.6-0.5,7.2-1.9,10.6
			c-1.1,2.5-2.8,4.7-5,6.4c-2.1,1.5-4.5,2.6-7.1,3.2c-2.7,0.6-5.4,1-8.1,1.2v9.2h13v44.6c0,6.9,1.9,12.3,5.7,16.3
			c3.8,4,10.4,6,19.8,6c3.6,0.1,7.1-0.4,10.5-1.5c2.6-0.9,5-2.3,7-4.3c1.8-1.9,3.1-4.2,3.8-6.7c0.8-2.8,1.2-5.8,1.1-8.7v-4.7
			L582.8,502.1z"/>
		<path class="st1" d="M685.8,508V450h-38.6v12.1c3.9,0,6.8,0.6,8.6,1.7c1.8,1.1,2.8,3.1,2.7,5.2v24c-1.7,5.8-4,10.3-7,13.6
			c-2.6,3.2-6.6,5-10.7,5c-3.1,0.2-6.1-1.6-7.5-4.4c-1.6-2.9-2.3-7.6-2.3-13.9V450h-39.8l-1.1,11.6c8.7,0,14.1,2.7,14.1,7.3v37
			c0,7.9,1.9,13.6,5.7,17.2c3.8,3.6,9.8,5.4,17.9,5.4c7.6,0,13.8-1.5,18.7-4.6c4.9-3.1,9-7.3,11.9-12.3v15.4H698v-12.1
			C689.8,514.8,685.8,512.6,685.8,508z"/>
		<path class="st1" d="M781.2,458.2c-1.2-2.3-2.8-4.3-4.8-5.9c-2-1.6-4.3-2.8-6.7-3.5c-2.4-0.8-4.9-1.2-7.4-1.2
			c-4.7,0-9.4,1.3-13.3,3.9c-4,2.6-7.4,6.8-10,12.6V450h-40.4v12.1c8.5,0,12.7,2.3,12.7,6.8v38.9c0,4.5-5,7.1-13.6,7.1l-0.1,12.1
			h55.8v-12.4c-3.6,0.1-7.1-0.4-10.5-1.7c-2.7-1.1-4-2.8-4-5.1v-26.5c0.8-3.2,1.9-6.3,3.4-9.3c1.3-2.7,3-5.1,4.9-7.4
			c1.6-1.9,3.6-3.5,5.7-4.8c1.8-1.1,3.9-1.7,6-1.7c1.6,0,3.1,0.3,4.5,1c1.4,0.7,2.6,1.7,3.5,3.1c-3.5,0.2-6,1.3-7.6,3.3
			c-1.5,2-2.3,4.3-2.3,6.8c-0.1,2.9,1.1,5.7,3.2,7.7c2.1,2,5.1,3,9.1,3c3.9,0.2,7.6-1.5,10-4.5c2.4-3,3.6-7,3.6-11.8
			C783.2,463.7,782.5,460.8,781.2,458.2z"/>
		<path class="st1" d="M843.2,512.3c-3.9,2.6-8.4,3.9-13.1,3.9c-6.4,0-11-2.3-13.9-6.9c-2.9-4.6-4.5-11.5-4.7-20.6h54.9
			c0-14.5-3.3-25.1-9.8-31.8c-6.5-6.7-16.5-10-30-10c-6.2-0.1-12.3,0.9-18.1,2.9c-5,1.8-9.5,4.6-13.3,8.3c-3.7,3.7-6.5,8.2-8.2,13.1
			c-1.9,5.5-2.9,11.3-2.8,17.2c0,8,1.2,14.6,3.6,19.8c2.1,4.9,5.4,9.3,9.6,12.6c4.1,3.2,8.9,5.5,14,6.7c5.4,1.3,11,2,16.6,2
			c4.9,0.1,9.8-0.7,14.4-2.3c3.9-1.4,7.5-3.5,10.7-6.2c2.8-2.5,5.2-5.4,7-8.8c1.7-3.2,3-6.6,3.7-10.2l-12.7-1.4
			C849.7,505.9,847.1,509.8,843.2,512.3z M817,462.4c2.7-3.3,6.8-5.1,11-5c2.4-0.1,4.9,0.6,7,1.8c1.9,1.2,3.5,2.8,4.7,4.8
			c1.3,2.1,2.2,4.4,2.7,6.7c0.6,2.5,0.9,5,0.9,7.6h-31.4C812.5,471,814.2,465.7,817,462.4L817,462.4z"/>
		<path class="st1" d="M167.5,641.9c-2.6,8.1-6.5,14-11.7,17.8c-5.2,3.8-12.5,5.7-22,5.7c-3.8,0-7.6-0.8-11.1-2.3
			c-3.6-1.6-6.7-4.1-9.1-7.3c-2.8-3.8-4.9-8.1-6-12.6c-1.6-6-2.3-12.2-2.2-18.4c0-13.7,2.4-24.3,7.2-31.8
			c4.8-7.5,12.9-11.3,24.3-11.3c7.9,0,14.1,2.2,18.7,6.6c4.6,4.4,7.6,10.5,9.1,18.4l15.3-1.2v-36.9H165l-3.5,7.6
			c-3.9-3.3-8.4-5.7-13.2-7.1c-6.4-2-13.2-2.9-19.9-2.8c-7.1,0-14.2,1.2-20.9,3.6c-6.5,2.4-12.5,6.1-17.5,10.9
			c-5.3,5.3-9.4,11.6-12,18.6c-3,7.5-4.5,16.3-4.5,26.5c0,9.8,1.5,18.2,4.5,25.4c5.4,13.6,16.6,24.1,30.6,28.5
			c7.3,2.4,14.8,3.5,22.5,3.5c6.9,0.1,13.8-0.9,20.4-3.1c5.3-1.8,10.3-4.7,14.5-8.4c3.9-3.4,7.1-7.5,9.5-12.1
			c2.4-4.6,4.3-9.4,5.6-14.4L167.5,641.9z"/>
		<path class="st1" d="M248.8,666.4c-3.9,2.6-8.4,3.9-13.1,3.9c-6.4,0-11-2.3-13.9-6.9c-2.9-4.6-4.5-11.5-4.7-20.6H272
			c0-14.5-3.3-25.1-9.8-31.8c-6.5-6.7-16.5-10-30-10c-6.2-0.1-12.3,0.9-18.1,2.9c-5,1.8-9.5,4.6-13.3,8.3c-3.7,3.7-6.5,8.2-8.2,13.1
			c-1.9,5.5-2.9,11.3-2.8,17.2c0,8,1.2,14.6,3.6,19.8c2.1,4.9,5.4,9.3,9.6,12.6c4.1,3.2,8.9,5.5,14,6.7c5.4,1.3,11,2,16.6,2
			c4.9,0.1,9.8-0.7,14.4-2.3c3.9-1.4,7.5-3.5,10.7-6.2c2.9-2.5,5.2-5.4,7-8.8c1.7-3.2,3-6.6,3.7-10.2l-12.7-1.4
			C255.3,659.9,252.7,663.8,248.8,666.4z M222.6,616.4c2.7-3.3,6.8-5.1,11-5c2.4-0.1,4.9,0.6,7,1.8c1.9,1.2,3.5,2.8,4.7,4.8
			c1.3,2.1,2.2,4.4,2.7,6.7c0.6,2.5,0.9,5,0.9,7.6h-31.4C218,625,219.7,619.7,222.6,616.4L222.6,616.4z"/>
		<path class="st1" d="M373.1,661.8V625c0-7.8-2.1-13.5-6.2-17.1c-4.1-3.6-10.1-5.4-18-5.4c-6.7-0.2-13.4,1.4-19.4,4.4
			c-5.6,2.9-10.3,7.3-13.6,12.5l0-15.4h-40.4v12.1c8.5,0,12.7,2.3,12.7,6.8v38.9c0,4.5-4.3,6.8-12.9,6.8V681h49v-12.4
			c-5.6,0-8.5-2.3-8.5-6.8v-23.5c1.4-5.2,4.2-9.9,8-13.6c3.1-3.1,7.4-4.9,11.8-5c3.1,0,5.9,1.7,7.3,4.4c1.7,2.9,2.6,7.5,2.6,13.9
			v23.8c0,4.5-2.9,6.8-8.6,6.8V681h49.3v-12.4C377.4,668.6,373.1,666.3,373.1,661.8z"/>
		<path class="st1" d="M435.2,656.2v7.3c0.1,1.7-0.3,3.5-1.2,5c-0.8,1.2-2.3,1.8-4.4,1.8c-2.1,0-3.6-0.6-4.5-1.7
			c-1-1.5-1.4-3.3-1.3-5.1v-48.2c3.6,0,7,0.1,10.1,0.4c3,0.2,6,0.7,8.9,1.3l0.8-12.9h-19.8v-23.7l-18.6,1.1v3.3
			c0.1,3.6-0.5,7.2-1.9,10.6c-1.1,2.5-2.8,4.7-5,6.4c-2.1,1.5-4.5,2.6-7.1,3.2c-2.7,0.6-5.4,1-8.1,1.2v9.2h13v44.6
			c0,6.9,1.9,12.3,5.7,16.3c3.8,4,10.4,6,19.8,6c3.6,0.1,7.1-0.4,10.5-1.5c2.6-0.9,5-2.3,7-4.3c1.8-1.9,3.1-4.2,3.8-6.7
			c0.8-2.8,1.2-5.8,1.1-8.7v-4.7L435.2,656.2z"/>
		<path class="st1" d="M506.9,666.4c-3.9,2.6-8.4,3.9-13.1,3.9c-6.4,0-11-2.3-13.9-6.9c-2.9-4.6-4.5-11.5-4.7-20.6h54.9
			c0-14.5-3.2-25.1-9.8-31.8c-6.5-6.7-16.5-10-30-10c-6.2-0.1-12.3,0.9-18.1,2.9c-5,1.8-9.5,4.6-13.3,8.3c-3.7,3.7-6.5,8.2-8.2,13.1
			c-1.9,5.5-2.9,11.3-2.8,17.2c0,8,1.2,14.6,3.6,19.8c2.1,4.9,5.4,9.3,9.6,12.6c4.1,3.2,8.9,5.5,14,6.7c5.4,1.3,11,2,16.6,2
			c4.9,0.1,9.8-0.7,14.4-2.3c3.9-1.4,7.5-3.5,10.7-6.2c2.8-2.5,5.2-5.4,7-8.8c1.7-3.2,3-6.6,3.7-10.2l-12.7-1.4
			C513.4,659.9,510.8,663.8,506.9,666.4z M480.7,616.4c2.7-3.3,6.8-5.1,11-5c2.4-0.1,4.9,0.6,7,1.8c1.9,1.2,3.5,2.8,4.7,4.8
			c1.3,2.1,2.2,4.4,2.7,6.7c0.6,2.5,0.9,5,0.9,7.6h-31.5C476.1,625,477.8,619.7,480.7,616.4L480.7,616.4z"/>
		<path class="st1" d="M615.5,612.2c-1.2-2.3-2.8-4.3-4.8-5.9c-2-1.6-4.3-2.8-6.7-3.5c-2.4-0.8-4.9-1.2-7.4-1.2
			c-4.7,0-9.4,1.3-13.3,3.9c-4,2.6-7.4,6.8-10,12.6V604h-40.4v12.1c8.5,0,12.7,2.3,12.7,6.8v38.9c0,4.5-4.3,6.8-12.9,6.8V681h55
			v-12.4c-3.6,0.1-7.1-0.4-10.5-1.7c-2.7-1.1-4-2.8-4-5.1v-26.5c0.8-3.2,1.9-6.3,3.4-9.3c1.3-2.7,3-5.1,4.9-7.4
			c1.6-1.9,3.6-3.5,5.7-4.8c1.8-1.1,3.9-1.7,6-1.7c1.6,0,3.1,0.3,4.5,1c1.4,0.7,2.6,1.7,3.5,3.1c-3.5,0.2-6,1.3-7.6,3.3
			c-1.5,2-2.3,4.3-2.3,6.8c-0.1,2.9,1.1,5.7,3.2,7.7c2.1,2,5.1,3,9.1,3c3.9,0.2,7.6-1.5,10-4.5c2.4-3,3.6-7,3.6-11.8
			C617.4,617.7,616.8,614.8,615.5,612.2z"/>
	</g>
</g>
</svg>
